<svg xmlns="http://www.w3.org/2000/svg" viewBox="0 0 200 200" role="img" aria-label="Sawaaden Tours & Travels logo">
<defs><clipPath id="c"><circle cx="100" cy="100" r="96"/></clipPath></defs>
<circle cx="100" cy="100" r="96" fill="#123d33"/>
<g clip-path="url(#c)">
<circle cx="135" cy="47" r="25" fill="#d79a2b"/>
<path d="M-10 112 42 62l23 25 32-42 33 39 22-22 58 58H-10Z" fill="#78a9bb"/>
<path d="m0 132 58-55 27 28 28-38 97 65H0Z" fill="#245f4e"/>
<path d="M0 157c35-27 66-28 98-14 31 13 60 9 102-21v42H0Z" fill="#f4eee2"/>
<path d="M0 158c35-26 68-28 99-14 30 13 60 9 101-20" fill="none" stroke="#d79a2b" stroke-width="6"/>
<path d="M37 74 18 63m34 20L30 72m47 16L63 75" stroke="#e8c66f" stroke-width="7" stroke-linecap="round"/>
<path d="M115 82h48v27h-48z" fill="#f0e6d2"/><path d="M112 82h54l-27-13z" fill="#c98d27"/>
<path d="M125 92h7v8h-7zm16 0h7v8h-7zm-8 11h7v8h-7z" fill="#123d33"/>
<text x="100" y="137" text-anchor="middle" fill="#123d33" font-family="Georgia,serif" font-size="39" font-weight="700">S</text>
</g>
<circle cx="100" cy="100" r="94" fill="none" stroke="#d79a2b" stroke-width="4"/>
</svg>
